<?xml version="1.0" encoding="utf-8" ?>
<!DOCTYPE svg PUBLIC "-//W3C//DTD SVG 1.1//EN" "http://www.w3.org/Graphics/SVG/1.1/DTD/svg11.dtd">
<svg height="524" version="1.1" width="1056" xmlns="http://www.w3.org/2000/svg">
<polygon fill="#ffffff" points="42,14 368,14 368,37 417,37 417,173 42,173 42,14" stroke="#ffffff" stroke-width="1"/>
<rect fill="none" height="23" stroke="#000000" stroke-width="1" width="326" x="42" y="14"/>
<text font-family="Dialog" font-size="12" x="47" y="27">
javax.swing</text>
<rect fill="none" height="136" stroke="#000000" stroke-width="1" width="375" x="42" y="37"/>
<rect fill="#ffffff" height="66" stroke="#ffffff" stroke-width="1" width="96" x="303" y="73"/>
<rect fill="none" height="66" stroke="#000000" stroke-width="1" width="96" x="303" y="73"/>
<text font-family="Dialog" font-size="12" x="330" y="86">
JFrame</text>
<rect fill="#000000" height="1" stroke="#000000" stroke-width="1" width="96" x="303" y="96"/>
<rect fill="#000000" height="1" stroke="#000000" stroke-width="1" width="96" x="303" y="117"/>
<rect fill="#ffffff" height="85" stroke="#ffffff" stroke-width="1" width="133" x="162" y="55"/>
<rect fill="none" height="85" stroke="#000000" stroke-width="1" width="133" x="162" y="55"/>
<text font-family="Dialog" font-size="12" x="209" y="68">
JPanel</text>
<rect fill="#000000" height="1" stroke="#000000" stroke-width="1" width="133" x="162" y="78"/>
<rect fill="#000000" height="1" stroke="#000000" stroke-width="1" width="133" x="162" y="99"/>
<text font-family="Dialog" font-size="12" x="166" y="113">
paint()</text>
<text font-family="Dialog" font-size="12" x="166" y="129">
addMouseListener()</text>
<rect fill="#ffffff" height="67" stroke="#ffffff" stroke-width="1" width="105" x="50" y="73"/>
<rect fill="none" height="67" stroke="#000000" stroke-width="1" width="105" x="50" y="73"/>
<text font-family="Dialog" font-size="12" x="57" y="105">
MouseListener</text>
<text font-family="Dialog" font-size="12" x="54" y="87">
&lt;&lt;interface&gt;&gt;</text>
<rect fill="#000000" height="1" stroke="#000000" stroke-width="1" width="105" x="50" y="115"/>
<text font-family="Dialog" font-size="12" x="54" y="129">
mouseClicked()</text>
<polygon fill="#ffffff" points="50,270 360,270 360,293 409,293 409,477 50,477 50,270" stroke="#ffffff" stroke-width="1"/>
<rect fill="none" height="23" stroke="#000000" stroke-width="1" width="310" x="50" y="270"/>
<text font-family="Dialog" font-size="12" x="55" y="283">
ui</text>
<rect fill="none" height="184" stroke="#000000" stroke-width="1" width="359" x="50" y="293"/>
<rect fill="#ffffc8" height="67" stroke="#ffffc8" stroke-width="1" width="92" x="282" y="382"/>
<rect fill="none" height="67" stroke="#000000" stroke-width="1" width="92" x="282" y="382"/>
<text font-family="Dialog" font-size="12" x="287" y="395">
Connect4Win</text>
<rect fill="#000000" height="1" stroke="#000000" stroke-width="1" width="92" x="282" y="405"/>
<rect fill="#000000" height="1" stroke="#000000" stroke-width="1" width="92" x="282" y="426"/>
<polyline fill="none" points="338,382 338,138" stroke="#000000" stroke-width="1"/>
<polygon fill="#ffffff" points="338,138 345,150 331,150" stroke="#ffffff" stroke-width="1"/>
<polygon fill="none" points="338,138 345,150 331,150" stroke="#000000" stroke-width="1"/>
<rect fill="#ffffc8" height="72" stroke="#ffffc8" stroke-width="1" width="88" x="170" y="302"/>
<rect fill="none" height="72" stroke="#000000" stroke-width="1" width="88" x="170" y="302"/>
<text font-family="Dialog" font-size="12" x="184" y="315">
GridPanel</text>
<rect fill="#000000" height="1" stroke="#000000" stroke-width="1" width="88" x="170" y="325"/>
<rect fill="#000000" height="1" stroke="#000000" stroke-width="1" width="88" x="170" y="349"/>
<polyline fill="none" points="322,382 322,326 257,326" stroke="#000000" stroke-width="1"/>
<line fill="#000000" stroke="#000000" stroke-width="1" x1="269" x2="257" y1="319" y2="326"/>
<line fill="#000000" stroke="#000000" stroke-width="1" x1="269" x2="257" y1="333" y2="326"/>
<text font-family="Dialog" font-size="12" x="268" y="321">
1</text>
<polyline fill="none" points="218,302 218,139" stroke="#000000" stroke-width="1"/>
<polygon fill="#ffffff" points="218,139 225,151 211,151" stroke="#ffffff" stroke-width="1"/>
<polygon fill="none" points="218,139 225,151 211,151" stroke="#000000" stroke-width="1"/>
<rect fill="#ffffc8" height="67" stroke="#ffffc8" stroke-width="1" width="66" x="66" y="382"/>
<rect fill="none" height="67" stroke="#000000" stroke-width="1" width="66" x="66" y="382"/>
<text font-family="Dialog" font-size="12" x="74" y="395">
UIPlayer</text>
<rect fill="#000000" height="1" stroke="#000000" stroke-width="1" width="66" x="66" y="405"/>
<rect fill="#000000" height="1" stroke="#000000" stroke-width="1" width="66" x="66" y="426"/>
<line fill="#000000" stroke="#000000" stroke-width="1" x1="106" x2="106" y1="382" y2="377"/>
<line fill="#000000" stroke="#000000" stroke-width="1" x1="106" x2="106" y1="372" y2="367"/>
<line fill="#000000" stroke="#000000" stroke-width="1" x1="106" x2="106" y1="362" y2="357"/>
<line fill="#000000" stroke="#000000" stroke-width="1" x1="106" x2="106" y1="352" y2="347"/>
<line fill="#000000" stroke="#000000" stroke-width="1" x1="106" x2="106" y1="342" y2="337"/>
<line fill="#000000" stroke="#000000" stroke-width="1" x1="106" x2="106" y1="332" y2="327"/>
<line fill="#000000" stroke="#000000" stroke-width="1" x1="106" x2="106" y1="322" y2="317"/>
<line fill="#000000" stroke="#000000" stroke-width="1" x1="106" x2="106" y1="312" y2="307"/>
<line fill="#000000" stroke="#000000" stroke-width="1" x1="106" x2="106" y1="302" y2="297"/>
<line fill="#000000" stroke="#000000" stroke-width="1" x1="106" x2="106" y1="292" y2="287"/>
<line fill="#000000" stroke="#000000" stroke-width="1" x1="106" x2="106" y1="282" y2="277"/>
<line fill="#000000" stroke="#000000" stroke-width="1" x1="106" x2="106" y1="272" y2="267"/>
<line fill="#000000" stroke="#000000" stroke-width="1" x1="106" x2="106" y1="262" y2="257"/>
<line fill="#000000" stroke="#000000" stroke-width="1" x1="106" x2="106" y1="252" y2="247"/>
<line fill="#000000" stroke="#000000" stroke-width="1" x1="106" x2="106" y1="242" y2="237"/>
<line fill="#000000" stroke="#000000" stroke-width="1" x1="106" x2="106" y1="232" y2="227"/>
<line fill="#000000" stroke="#000000" stroke-width="1" x1="106" x2="106" y1="222" y2="217"/>
<line fill="#000000" stroke="#000000" stroke-width="1" x1="106" x2="106" y1="212" y2="207"/>
<line fill="#000000" stroke="#000000" stroke-width="1" x1="106" x2="106" y1="202" y2="197"/>
<line fill="#000000" stroke="#000000" stroke-width="1" x1="106" x2="106" y1="192" y2="187"/>
<line fill="#000000" stroke="#000000" stroke-width="1" x1="106" x2="106" y1="182" y2="177"/>
<line fill="#000000" stroke="#000000" stroke-width="1" x1="106" x2="106" y1="172" y2="167"/>
<line fill="#000000" stroke="#000000" stroke-width="1" x1="106" x2="106" y1="162" y2="157"/>
<line fill="#000000" stroke="#000000" stroke-width="1" x1="106" x2="106" y1="152" y2="147"/>
<line fill="#000000" stroke="#000000" stroke-width="1" x1="106" x2="106" y1="142" y2="139"/>
<polygon fill="#ffffff" points="106,139 113,151 99,151" stroke="#ffffff" stroke-width="1"/>
<polygon fill="none" points="106,139 113,151 99,151" stroke="#000000" stroke-width="1"/>
<polygon fill="#ffffff" points="450,14 992,14 992,37 1041,37 1041,477 450,477 450,14" stroke="#ffffff" stroke-width="1"/>
<rect fill="none" height="23" stroke="#000000" stroke-width="1" width="542" x="450" y="14"/>
<text font-family="Dialog" font-size="12" x="455" y="27">
connect4</text>
<rect fill="none" height="440" stroke="#000000" stroke-width="1" width="591" x="450" y="37"/>
<rect fill="#ffc800" height="115" stroke="#ffc800" stroke-width="1" width="105" x="466" y="158"/>
<rect fill="none" height="115" stroke="#000000" stroke-width="1" width="105" x="466" y="158"/>
<text font-family="Dialog" font-size="12" x="472" y="190">
GameObserver</text>
<text font-family="Dialog" font-size="12" x="470" y="172">
&lt;&lt;interface&gt;&gt;</text>
<rect fill="#000000" height="1" stroke="#000000" stroke-width="1" width="105" x="466" y="200"/>
<text font-family="Dialog" font-size="12" x="470" y="214">
newGame()</text>
<text font-family="Dialog" font-size="12" x="470" y="230">
newMove()</text>
<text font-family="Dialog" font-size="12" x="470" y="246">
notifyWinner()</text>
<text font-family="Dialog" font-size="12" x="470" y="262">
notifyDraw()</text>
<line fill="#000000" stroke="#000000" stroke-width="1" x1="373" x2="378" y1="406" y2="406"/>
<line fill="#000000" stroke="#000000" stroke-width="1" x1="383" x2="388" y1="406" y2="406"/>
<line fill="#000000" stroke="#000000" stroke-width="1" x1="393" x2="398" y1="406" y2="406"/>
<line fill="#000000" stroke="#000000" stroke-width="1" x1="403" x2="408" y1="406" y2="406"/>
<line fill="#000000" stroke="#000000" stroke-width="1" x1="413" x2="418" y1="406" y2="406"/>
<line fill="#000000" stroke="#000000" stroke-width="1" x1="423" x2="428" y1="406" y2="406"/>
<line fill="#000000" stroke="#000000" stroke-width="1" x1="433" x2="438" y1="406" y2="406"/>
<line fill="#000000" stroke="#000000" stroke-width="1" x1="443" x2="448" y1="406" y2="406"/>
<line fill="#000000" stroke="#000000" stroke-width="1" x1="453" x2="458" y1="406" y2="406"/>
<line fill="#000000" stroke="#000000" stroke-width="1" x1="463" x2="468" y1="406" y2="406"/>
<line fill="#000000" stroke="#000000" stroke-width="1" x1="473" x2="478" y1="406" y2="406"/>
<line fill="#000000" stroke="#000000" stroke-width="1" x1="482" x2="482" y1="406" y2="401"/>
<line fill="#000000" stroke="#000000" stroke-width="1" x1="482" x2="482" y1="396" y2="391"/>
<line fill="#000000" stroke="#000000" stroke-width="1" x1="482" x2="482" y1="386" y2="381"/>
<line fill="#000000" stroke="#000000" stroke-width="1" x1="482" x2="482" y1="376" y2="371"/>
<line fill="#000000" stroke="#000000" stroke-width="1" x1="482" x2="482" y1="366" y2="361"/>
<line fill="#000000" stroke="#000000" stroke-width="1" x1="482" x2="482" y1="356" y2="351"/>
<line fill="#000000" stroke="#000000" stroke-width="1" x1="482" x2="482" y1="346" y2="341"/>
<line fill="#000000" stroke="#000000" stroke-width="1" x1="482" x2="482" y1="336" y2="331"/>
<line fill="#000000" stroke="#000000" stroke-width="1" x1="482" x2="482" y1="326" y2="321"/>
<line fill="#000000" stroke="#000000" stroke-width="1" x1="482" x2="482" y1="316" y2="311"/>
<line fill="#000000" stroke="#000000" stroke-width="1" x1="482" x2="482" y1="306" y2="301"/>
<line fill="#000000" stroke="#000000" stroke-width="1" x1="482" x2="482" y1="296" y2="291"/>
<line fill="#000000" stroke="#000000" stroke-width="1" x1="482" x2="482" y1="286" y2="281"/>
<line fill="#000000" stroke="#000000" stroke-width="1" x1="482" x2="482" y1="276" y2="272"/>
<polygon fill="#ffffff" points="482,272 489,284 475,284" stroke="#ffffff" stroke-width="1"/>
<polygon fill="none" points="482,272 489,284 475,284" stroke="#000000" stroke-width="1"/>
<rect fill="#ffc800" height="168" stroke="#ffc800" stroke-width="1" width="113" x="602" y="70"/>
<rect fill="none" height="168" stroke="#000000" stroke-width="1" width="113" x="602" y="70"/>
<text font-family="Dialog" font-size="12" x="646" y="83">
Grid</text>
<rect fill="#000000" height="1" stroke="#000000" stroke-width="1" width="113" x="602" y="93"/>
<line fill="#000000" stroke="#000000" stroke-width="1" x1="606" x2="688" y1="108" y2="108"/>
<text font-family="Dialog" font-size="12" x="606" y="107">
RED : Integer</text>
<line fill="#000000" stroke="#000000" stroke-width="1" x1="606" x2="710" y1="124" y2="124"/>
<text font-family="Dialog" font-size="12" x="606" y="123">
YELLOW : Integer</text>
<text font-family="Dialog" font-size="12" x="606" y="139">
discs</text>
<rect fill="#000000" height="1" stroke="#000000" stroke-width="1" width="113" x="602" y="149"/>
<text font-family="Dialog" font-size="12" x="606" y="163">
draw()</text>
<text font-family="Dialog" font-size="12" x="606" y="179">
won()</text>
<text font-family="Dialog" font-size="12" x="606" y="195">
makeMove()</text>
<text font-family="Dialog" font-size="12" x="606" y="211">
sideToMove()</text>
<text font-family="Dialog" font-size="12" x="606" y="227">
getDisc(int,int)</text>
<line fill="#000000" stroke="#000000" stroke-width="1" x1="242" x2="242" y1="302" y2="297"/>
<line fill="#000000" stroke="#000000" stroke-width="1" x1="242" x2="242" y1="292" y2="287"/>
<line fill="#000000" stroke="#000000" stroke-width="1" x1="242" x2="242" y1="282" y2="277"/>
<line fill="#000000" stroke="#000000" stroke-width="1" x1="242" x2="242" y1="272" y2="267"/>
<line fill="#000000" stroke="#000000" stroke-width="1" x1="242" x2="242" y1="262" y2="257"/>
<line fill="#000000" stroke="#000000" stroke-width="1" x1="242" x2="242" y1="252" y2="247"/>
<line fill="#000000" stroke="#000000" stroke-width="1" x1="242" x2="242" y1="242" y2="237"/>
<line fill="#000000" stroke="#000000" stroke-width="1" x1="242" x2="242" y1="232" y2="227"/>
<line fill="#000000" stroke="#000000" stroke-width="1" x1="242" x2="242" y1="222" y2="217"/>
<line fill="#000000" stroke="#000000" stroke-width="1" x1="242" x2="247" y1="214" y2="214"/>
<line fill="#000000" stroke="#000000" stroke-width="1" x1="252" x2="257" y1="214" y2="214"/>
<line fill="#000000" stroke="#000000" stroke-width="1" x1="262" x2="267" y1="214" y2="214"/>
<line fill="#000000" stroke="#000000" stroke-width="1" x1="272" x2="277" y1="214" y2="214"/>
<line fill="#000000" stroke="#000000" stroke-width="1" x1="282" x2="287" y1="214" y2="214"/>
<line fill="#000000" stroke="#000000" stroke-width="1" x1="292" x2="297" y1="214" y2="214"/>
<line fill="#000000" stroke="#000000" stroke-width="1" x1="302" x2="307" y1="214" y2="214"/>
<line fill="#000000" stroke="#000000" stroke-width="1" x1="312" x2="317" y1="214" y2="214"/>
<line fill="#000000" stroke="#000000" stroke-width="1" x1="322" x2="327" y1="214" y2="214"/>
<line fill="#000000" stroke="#000000" stroke-width="1" x1="332" x2="337" y1="214" y2="214"/>
<line fill="#000000" stroke="#000000" stroke-width="1" x1="342" x2="347" y1="214" y2="214"/>
<line fill="#000000" stroke="#000000" stroke-width="1" x1="352" x2="357" y1="214" y2="214"/>
<line fill="#000000" stroke="#000000" stroke-width="1" x1="362" x2="367" y1="214" y2="214"/>
<line fill="#000000" stroke="#000000" stroke-width="1" x1="372" x2="377" y1="214" y2="214"/>
<line fill="#000000" stroke="#000000" stroke-width="1" x1="382" x2="387" y1="214" y2="214"/>
<line fill="#000000" stroke="#000000" stroke-width="1" x1="392" x2="397" y1="214" y2="214"/>
<line fill="#000000" stroke="#000000" stroke-width="1" x1="402" x2="407" y1="214" y2="214"/>
<line fill="#000000" stroke="#000000" stroke-width="1" x1="412" x2="417" y1="214" y2="214"/>
<line fill="#000000" stroke="#000000" stroke-width="1" x1="422" x2="427" y1="214" y2="214"/>
<line fill="#000000" stroke="#000000" stroke-width="1" x1="432" x2="434" y1="214" y2="214"/>
<line fill="#000000" stroke="#000000" stroke-width="1" x1="434" x2="434" y1="214" y2="209"/>
<line fill="#000000" stroke="#000000" stroke-width="1" x1="434" x2="434" y1="204" y2="199"/>
<line fill="#000000" stroke="#000000" stroke-width="1" x1="434" x2="434" y1="194" y2="189"/>
<line fill="#000000" stroke="#000000" stroke-width="1" x1="434" x2="434" y1="184" y2="179"/>
<line fill="#000000" stroke="#000000" stroke-width="1" x1="434" x2="434" y1="174" y2="169"/>
<line fill="#000000" stroke="#000000" stroke-width="1" x1="434" x2="434" y1="164" y2="159"/>
<line fill="#000000" stroke="#000000" stroke-width="1" x1="434" x2="434" y1="154" y2="149"/>
<line fill="#000000" stroke="#000000" stroke-width="1" x1="434" x2="434" y1="144" y2="139"/>
<line fill="#000000" stroke="#000000" stroke-width="1" x1="434" x2="434" y1="134" y2="129"/>
<line fill="#000000" stroke="#000000" stroke-width="1" x1="434" x2="434" y1="124" y2="119"/>
<line fill="#000000" stroke="#000000" stroke-width="1" x1="434" x2="434" y1="114" y2="110"/>
<line fill="#000000" stroke="#000000" stroke-width="1" x1="434" x2="439" y1="110" y2="110"/>
<line fill="#000000" stroke="#000000" stroke-width="1" x1="444" x2="449" y1="110" y2="110"/>
<line fill="#000000" stroke="#000000" stroke-width="1" x1="454" x2="459" y1="110" y2="110"/>
<line fill="#000000" stroke="#000000" stroke-width="1" x1="464" x2="469" y1="110" y2="110"/>
<line fill="#000000" stroke="#000000" stroke-width="1" x1="474" x2="479" y1="110" y2="110"/>
<line fill="#000000" stroke="#000000" stroke-width="1" x1="484" x2="489" y1="110" y2="110"/>
<line fill="#000000" stroke="#000000" stroke-width="1" x1="494" x2="499" y1="110" y2="110"/>
<line fill="#000000" stroke="#000000" stroke-width="1" x1="504" x2="509" y1="110" y2="110"/>
<line fill="#000000" stroke="#000000" stroke-width="1" x1="514" x2="519" y1="110" y2="110"/>
<line fill="#000000" stroke="#000000" stroke-width="1" x1="524" x2="529" y1="110" y2="110"/>
<line fill="#000000" stroke="#000000" stroke-width="1" x1="534" x2="539" y1="110" y2="110"/>
<line fill="#000000" stroke="#000000" stroke-width="1" x1="544" x2="549" y1="110" y2="110"/>
<line fill="#000000" stroke="#000000" stroke-width="1" x1="554" x2="559" y1="110" y2="110"/>
<line fill="#000000" stroke="#000000" stroke-width="1" x1="564" x2="569" y1="110" y2="110"/>
<line fill="#000000" stroke="#000000" stroke-width="1" x1="574" x2="579" y1="110" y2="110"/>
<line fill="#000000" stroke="#000000" stroke-width="1" x1="584" x2="589" y1="110" y2="110"/>
<line fill="#000000" stroke="#000000" stroke-width="1" x1="594" x2="599" y1="110" y2="110"/>
<line fill="#000000" stroke="#000000" stroke-width="1" x1="590" x2="602" y1="117" y2="110"/>
<line fill="#000000" stroke="#000000" stroke-width="1" x1="590" x2="602" y1="103" y2="110"/>
<line fill="#000000" stroke="#000000" stroke-width="1" x1="514" x2="514" y1="158" y2="153"/>
<line fill="#000000" stroke="#000000" stroke-width="1" x1="514" x2="514" y1="148" y2="143"/>
<line fill="#000000" stroke="#000000" stroke-width="1" x1="514" x2="514" y1="138" y2="134"/>
<line fill="#000000" stroke="#000000" stroke-width="1" x1="514" x2="519" y1="134" y2="134"/>
<line fill="#000000" stroke="#000000" stroke-width="1" x1="524" x2="529" y1="134" y2="134"/>
<line fill="#000000" stroke="#000000" stroke-width="1" x1="534" x2="539" y1="134" y2="134"/>
<line fill="#000000" stroke="#000000" stroke-width="1" x1="544" x2="549" y1="134" y2="134"/>
<line fill="#000000" stroke="#000000" stroke-width="1" x1="554" x2="559" y1="134" y2="134"/>
<line fill="#000000" stroke="#000000" stroke-width="1" x1="564" x2="569" y1="134" y2="134"/>
<line fill="#000000" stroke="#000000" stroke-width="1" x1="574" x2="579" y1="134" y2="134"/>
<line fill="#000000" stroke="#000000" stroke-width="1" x1="584" x2="589" y1="134" y2="134"/>
<line fill="#000000" stroke="#000000" stroke-width="1" x1="594" x2="599" y1="134" y2="134"/>
<line fill="#000000" stroke="#000000" stroke-width="1" x1="590" x2="602" y1="141" y2="134"/>
<line fill="#000000" stroke="#000000" stroke-width="1" x1="590" x2="602" y1="127" y2="134"/>
<rect fill="#ffc800" height="101" stroke="#ffc800" stroke-width="1" width="113" x="722" y="270"/>
<rect fill="none" height="101" stroke="#000000" stroke-width="1" width="113" x="722" y="270"/>
<text font-family="Dialog" font-size="12" x="760" y="283">
Game</text>
<rect fill="#000000" height="1" stroke="#000000" stroke-width="1" width="113" x="722" y="293"/>
<rect fill="#000000" height="1" stroke="#000000" stroke-width="1" width="113" x="722" y="314"/>
<text font-family="Dialog" font-size="12" x="726" y="328">
play()</text>
<text font-family="Dialog" font-size="12" x="726" y="344">
addObserver()</text>
<text font-family="Dialog" font-size="12" x="726" y="360">
makeMove()</text>
<polyline fill="none" points="722,310 658,310 658,237" stroke="#000000" stroke-width="1"/>
<line fill="#000000" stroke="#000000" stroke-width="1" x1="665" x2="658" y1="249" y2="237"/>
<line fill="#000000" stroke="#000000" stroke-width="1" x1="651" x2="658" y1="249" y2="237"/>
<text font-family="Dialog" font-size="12" x="637" y="264">
1</text>
<polyline fill="none" points="722,350 514,350 514,272" stroke="#000000" stroke-width="1"/>
<line fill="#000000" stroke="#000000" stroke-width="1" x1="521" x2="514" y1="284" y2="272"/>
<line fill="#000000" stroke="#000000" stroke-width="1" x1="507" x2="514" y1="284" y2="272"/>
<text font-family="Dialog" font-size="12" x="486" y="299">
0..*</text>
<rect fill="#ffc800" height="67" stroke="#ffc800" stroke-width="1" width="136" x="866" y="118"/>
<rect fill="none" height="67" stroke="#000000" stroke-width="1" width="136" x="866" y="118"/>
<text font-family="Dialog" font-size="12" x="915" y="150">
Player</text>
<text font-family="Dialog" font-size="12" x="886" y="132">
&lt;&lt;interface&gt;&gt;</text>
<rect fill="#000000" height="1" stroke="#000000" stroke-width="1" width="136" x="866" y="160"/>
<text font-family="Dialog" font-size="12" x="870" y="174">
yourTurn(Game)</text>
<line fill="#000000" stroke="#000000" stroke-width="1" x1="106" x2="106" y1="448" y2="453"/>
<line fill="#000000" stroke="#000000" stroke-width="1" x1="106" x2="106" y1="458" y2="463"/>
<line fill="#000000" stroke="#000000" stroke-width="1" x1="106" x2="106" y1="468" y2="473"/>
<line fill="#000000" stroke="#000000" stroke-width="1" x1="106" x2="106" y1="478" y2="483"/>
<line fill="#000000" stroke="#000000" stroke-width="1" x1="106" x2="106" y1="488" y2="493"/>
<line fill="#000000" stroke="#000000" stroke-width="1" x1="106" x2="106" y1="498" y2="503"/>
<line fill="#000000" stroke="#000000" stroke-width="1" x1="106" x2="106" y1="508" y2="510"/>
<line fill="#000000" stroke="#000000" stroke-width="1" x1="106" x2="111" y1="510" y2="510"/>
<line fill="#000000" stroke="#000000" stroke-width="1" x1="116" x2="121" y1="510" y2="510"/>
<line fill="#000000" stroke="#000000" stroke-width="1" x1="126" x2="131" y1="510" y2="510"/>
<line fill="#000000" stroke="#000000" stroke-width="1" x1="136" x2="141" y1="510" y2="510"/>
<line fill="#000000" stroke="#000000" stroke-width="1" x1="146" x2="151" y1="510" y2="510"/>
<line fill="#000000" stroke="#000000" stroke-width="1" x1="156" x2="161" y1="510" y2="510"/>
<line fill="#000000" stroke="#000000" stroke-width="1" x1="166" x2="171" y1="510" y2="510"/>
<line fill="#000000" stroke="#000000" stroke-width="1" x1="176" x2="181" y1="510" y2="510"/>
<line fill="#000000" stroke="#000000" stroke-width="1" x1="186" x2="191" y1="510" y2="510"/>
<line fill="#000000" stroke="#000000" stroke-width="1" x1="196" x2="201" y1="510" y2="510"/>
<line fill="#000000" stroke="#000000" stroke-width="1" x1="206" x2="211" y1="510" y2="510"/>
<line fill="#000000" stroke="#000000" stroke-width="1" x1="216" x2="221" y1="510" y2="510"/>
<line fill="#000000" stroke="#000000" stroke-width="1" x1="226" x2="231" y1="510" y2="510"/>
<line fill="#000000" stroke="#000000" stroke-width="1" x1="236" x2="241" y1="510" y2="510"/>
<line fill="#000000" stroke="#000000" stroke-width="1" x1="246" x2="251" y1="510" y2="510"/>
<line fill="#000000" stroke="#000000" stroke-width="1" x1="256" x2="261" y1="510" y2="510"/>
<line fill="#000000" stroke="#000000" stroke-width="1" x1="266" x2="271" y1="510" y2="510"/>
<line fill="#000000" stroke="#000000" stroke-width="1" x1="276" x2="281" y1="510" y2="510"/>
<line fill="#000000" stroke="#000000" stroke-width="1" x1="286" x2="291" y1="510" y2="510"/>
<line fill="#000000" stroke="#000000" stroke-width="1" x1="296" x2="301" y1="510" y2="510"/>
<line fill="#000000" stroke="#000000" stroke-width="1" x1="306" x2="311" y1="510" y2="510"/>
<line fill="#000000" stroke="#000000" stroke-width="1" x1="316" x2="321" y1="510" y2="510"/>
<line fill="#000000" stroke="#000000" stroke-width="1" x1="326" x2="331" y1="510" y2="510"/>
<line fill="#000000" stroke="#000000" stroke-width="1" x1="336" x2="341" y1="510" y2="510"/>
<line fill="#000000" stroke="#000000" stroke-width="1" x1="346" x2="351" y1="510" y2="510"/>
<line fill="#000000" stroke="#000000" stroke-width="1" x1="356" x2="361" y1="510" y2="510"/>
<line fill="#000000" stroke="#000000" stroke-width="1" x1="366" x2="371" y1="510" y2="510"/>
<line fill="#000000" stroke="#000000" stroke-width="1" x1="376" x2="381" y1="510" y2="510"/>
<line fill="#000000" stroke="#000000" stroke-width="1" x1="386" x2="391" y1="510" y2="510"/>
<line fill="#000000" stroke="#000000" stroke-width="1" x1="396" x2="401" y1="510" y2="510"/>
<line fill="#000000" stroke="#000000" stroke-width="1" x1="406" x2="411" y1="510" y2="510"/>
<line fill="#000000" stroke="#000000" stroke-width="1" x1="416" x2="421" y1="510" y2="510"/>
<line fill="#000000" stroke="#000000" stroke-width="1" x1="426" x2="431" y1="510" y2="510"/>
<line fill="#000000" stroke="#000000" stroke-width="1" x1="436" x2="441" y1="510" y2="510"/>
<line fill="#000000" stroke="#000000" stroke-width="1" x1="446" x2="451" y1="510" y2="510"/>
<line fill="#000000" stroke="#000000" stroke-width="1" x1="456" x2="461" y1="510" y2="510"/>
<line fill="#000000" stroke="#000000" stroke-width="1" x1="466" x2="471" y1="510" y2="510"/>
<line fill="#000000" stroke="#000000" stroke-width="1" x1="476" x2="481" y1="510" y2="510"/>
<line fill="#000000" stroke="#000000" stroke-width="1" x1="486" x2="491" y1="510" y2="510"/>
<line fill="#000000" stroke="#000000" stroke-width="1" x1="496" x2="501" y1="510" y2="510"/>
<line fill="#000000" stroke="#000000" stroke-width="1" x1="506" x2="511" y1="510" y2="510"/>
<line fill="#000000" stroke="#000000" stroke-width="1" x1="516" x2="521" y1="510" y2="510"/>
<line fill="#000000" stroke="#000000" stroke-width="1" x1="526" x2="531" y1="510" y2="510"/>
<line fill="#000000" stroke="#000000" stroke-width="1" x1="536" x2="541" y1="510" y2="510"/>
<line fill="#000000" stroke="#000000" stroke-width="1" x1="546" x2="551" y1="510" y2="510"/>
<line fill="#000000" stroke="#000000" stroke-width="1" x1="556" x2="561" y1="510" y2="510"/>
<line fill="#000000" stroke="#000000" stroke-width="1" x1="566" x2="571" y1="510" y2="510"/>
<line fill="#000000" stroke="#000000" stroke-width="1" x1="576" x2="581" y1="510" y2="510"/>
<line fill="#000000" stroke="#000000" stroke-width="1" x1="586" x2="591" y1="510" y2="510"/>
<line fill="#000000" stroke="#000000" stroke-width="1" x1="596" x2="601" y1="510" y2="510"/>
<line fill="#000000" stroke="#000000" stroke-width="1" x1="606" x2="611" y1="510" y2="510"/>
<line fill="#000000" stroke="#000000" stroke-width="1" x1="616" x2="621" y1="510" y2="510"/>
<line fill="#000000" stroke="#000000" stroke-width="1" x1="626" x2="631" y1="510" y2="510"/>
<line fill="#000000" stroke="#000000" stroke-width="1" x1="636" x2="641" y1="510" y2="510"/>
<line fill="#000000" stroke="#000000" stroke-width="1" x1="646" x2="651" y1="510" y2="510"/>
<line fill="#000000" stroke="#000000" stroke-width="1" x1="656" x2="661" y1="510" y2="510"/>
<line fill="#000000" stroke="#000000" stroke-width="1" x1="666" x2="671" y1="510" y2="510"/>
<line fill="#000000" stroke="#000000" stroke-width="1" x1="676" x2="681" y1="510" y2="510"/>
<line fill="#000000" stroke="#000000" stroke-width="1" x1="686" x2="691" y1="510" y2="510"/>
<line fill="#000000" stroke="#000000" stroke-width="1" x1="696" x2="701" y1="510" y2="510"/>
<line fill="#000000" stroke="#000000" stroke-width="1" x1="706" x2="711" y1="510" y2="510"/>
<line fill="#000000" stroke="#000000" stroke-width="1" x1="716" x2="721" y1="510" y2="510"/>
<line fill="#000000" stroke="#000000" stroke-width="1" x1="726" x2="731" y1="510" y2="510"/>
<line fill="#000000" stroke="#000000" stroke-width="1" x1="736" x2="741" y1="510" y2="510"/>
<line fill="#000000" stroke="#000000" stroke-width="1" x1="746" x2="751" y1="510" y2="510"/>
<line fill="#000000" stroke="#000000" stroke-width="1" x1="756" x2="761" y1="510" y2="510"/>
<line fill="#000000" stroke="#000000" stroke-width="1" x1="766" x2="771" y1="510" y2="510"/>
<line fill="#000000" stroke="#000000" stroke-width="1" x1="776" x2="781" y1="510" y2="510"/>
<line fill="#000000" stroke="#000000" stroke-width="1" x1="786" x2="791" y1="510" y2="510"/>
<line fill="#000000" stroke="#000000" stroke-width="1" x1="796" x2="801" y1="510" y2="510"/>
<line fill="#000000" stroke="#000000" stroke-width="1" x1="806" x2="811" y1="510" y2="510"/>
<line fill="#000000" stroke="#000000" stroke-width="1" x1="816" x2="821" y1="510" y2="510"/>
<line fill="#000000" stroke="#000000" stroke-width="1" x1="826" x2="831" y1="510" y2="510"/>
<line fill="#000000" stroke="#000000" stroke-width="1" x1="836" x2="841" y1="510" y2="510"/>
<line fill="#000000" stroke="#000000" stroke-width="1" x1="846" x2="851" y1="510" y2="510"/>
<line fill="#000000" stroke="#000000" stroke-width="1" x1="856" x2="861" y1="510" y2="510"/>
<line fill="#000000" stroke="#000000" stroke-width="1" x1="866" x2="871" y1="510" y2="510"/>
<line fill="#000000" stroke="#000000" stroke-width="1" x1="876" x2="881" y1="510" y2="510"/>
<line fill="#000000" stroke="#000000" stroke-width="1" x1="886" x2="891" y1="510" y2="510"/>
<line fill="#000000" stroke="#000000" stroke-width="1" x1="896" x2="901" y1="510" y2="510"/>
<line fill="#000000" stroke="#000000" stroke-width="1" x1="906" x2="911" y1="510" y2="510"/>
<line fill="#000000" stroke="#000000" stroke-width="1" x1="916" x2="921" y1="510" y2="510"/>
<line fill="#000000" stroke="#000000" stroke-width="1" x1="926" x2="931" y1="510" y2="510"/>
<line fill="#000000" stroke="#000000" stroke-width="1" x1="936" x2="938" y1="510" y2="510"/>
<line fill="#000000" stroke="#000000" stroke-width="1" x1="938" x2="938" y1="510" y2="505"/>
<line fill="#000000" stroke="#000000" stroke-width="1" x1="938" x2="938" y1="500" y2="495"/>
<line fill="#000000" stroke="#000000" stroke-width="1" x1="938" x2="938" y1="490" y2="485"/>
<line fill="#000000" stroke="#000000" stroke-width="1" x1="938" x2="938" y1="480" y2="475"/>
<line fill="#000000" stroke="#000000" stroke-width="1" x1="938" x2="938" y1="470" y2="465"/>
<line fill="#000000" stroke="#000000" stroke-width="1" x1="938" x2="938" y1="460" y2="455"/>
<line fill="#000000" stroke="#000000" stroke-width="1" x1="938" x2="938" y1="450" y2="445"/>
<line fill="#000000" stroke="#000000" stroke-width="1" x1="938" x2="938" y1="440" y2="435"/>
<line fill="#000000" stroke="#000000" stroke-width="1" x1="938" x2="938" y1="430" y2="425"/>
<line fill="#000000" stroke="#000000" stroke-width="1" x1="938" x2="938" y1="420" y2="415"/>
<line fill="#000000" stroke="#000000" stroke-width="1" x1="938" x2="938" y1="410" y2="405"/>
<line fill="#000000" stroke="#000000" stroke-width="1" x1="938" x2="938" y1="400" y2="395"/>
<line fill="#000000" stroke="#000000" stroke-width="1" x1="938" x2="938" y1="390" y2="385"/>
<line fill="#000000" stroke="#000000" stroke-width="1" x1="938" x2="938" y1="380" y2="375"/>
<line fill="#000000" stroke="#000000" stroke-width="1" x1="938" x2="938" y1="370" y2="365"/>
<line fill="#000000" stroke="#000000" stroke-width="1" x1="938" x2="938" y1="360" y2="355"/>
<line fill="#000000" stroke="#000000" stroke-width="1" x1="938" x2="938" y1="350" y2="345"/>
<line fill="#000000" stroke="#000000" stroke-width="1" x1="938" x2="938" y1="340" y2="335"/>
<line fill="#000000" stroke="#000000" stroke-width="1" x1="938" x2="938" y1="330" y2="325"/>
<line fill="#000000" stroke="#000000" stroke-width="1" x1="938" x2="938" y1="320" y2="315"/>
<line fill="#000000" stroke="#000000" stroke-width="1" x1="938" x2="938" y1="310" y2="305"/>
<line fill="#000000" stroke="#000000" stroke-width="1" x1="938" x2="938" y1="300" y2="295"/>
<line fill="#000000" stroke="#000000" stroke-width="1" x1="938" x2="938" y1="290" y2="285"/>
<line fill="#000000" stroke="#000000" stroke-width="1" x1="938" x2="938" y1="280" y2="275"/>
<line fill="#000000" stroke="#000000" stroke-width="1" x1="938" x2="938" y1="270" y2="265"/>
<line fill="#000000" stroke="#000000" stroke-width="1" x1="938" x2="938" y1="260" y2="255"/>
<line fill="#000000" stroke="#000000" stroke-width="1" x1="938" x2="938" y1="250" y2="245"/>
<line fill="#000000" stroke="#000000" stroke-width="1" x1="938" x2="938" y1="240" y2="235"/>
<line fill="#000000" stroke="#000000" stroke-width="1" x1="938" x2="938" y1="230" y2="225"/>
<line fill="#000000" stroke="#000000" stroke-width="1" x1="938" x2="938" y1="220" y2="215"/>
<line fill="#000000" stroke="#000000" stroke-width="1" x1="938" x2="938" y1="210" y2="205"/>
<line fill="#000000" stroke="#000000" stroke-width="1" x1="938" x2="938" y1="200" y2="195"/>
<line fill="#000000" stroke="#000000" stroke-width="1" x1="938" x2="938" y1="190" y2="185"/>
<polygon fill="#ffffff" points="938,184 945,196 931,196" stroke="#ffffff" stroke-width="1"/>
<polygon fill="none" points="938,184 945,196 931,196" stroke="#000000" stroke-width="1"/>
<polyline fill="none" points="754,270 754,166 866,166" stroke="#000000" stroke-width="1"/>
<line fill="#000000" stroke="#000000" stroke-width="1" x1="854" x2="866" y1="173" y2="166"/>
<line fill="#000000" stroke="#000000" stroke-width="1" x1="854" x2="866" y1="159" y2="166"/>
<text font-family="Dialog" font-size="12" x="847" y="161">
1</text>
<text font-family="Dialog" font-size="12" x="782" y="180">
redPlayer</text>
<polyline fill="none" points="738,270 738,134 866,134" stroke="#000000" stroke-width="1"/>
<line fill="#000000" stroke="#000000" stroke-width="1" x1="854" x2="866" y1="141" y2="134"/>
<line fill="#000000" stroke="#000000" stroke-width="1" x1="854" x2="866" y1="127" y2="134"/>
<text font-family="Dialog" font-size="12" x="847" y="129">
1</text>
<text font-family="Dialog" font-size="12" x="767" y="148">
yellowPlayer</text>
<rect fill="#ffc800" height="69" stroke="#ffc800" stroke-width="1" width="105" x="818" y="382"/>
<rect fill="none" height="69" stroke="#000000" stroke-width="1" width="105" x="818" y="382"/>
<text font-family="Dialog" font-size="12" x="826" y="395">
ConsolePlayer</text>
<rect fill="#000000" height="1" stroke="#000000" stroke-width="1" width="105" x="818" y="405"/>
<rect fill="#000000" height="1" stroke="#000000" stroke-width="1" width="105" x="818" y="427"/>
<line fill="#000000" stroke="#000000" stroke-width="1" x1="898" x2="898" y1="382" y2="377"/>
<line fill="#000000" stroke="#000000" stroke-width="1" x1="898" x2="898" y1="372" y2="367"/>
<line fill="#000000" stroke="#000000" stroke-width="1" x1="898" x2="898" y1="362" y2="357"/>
<line fill="#000000" stroke="#000000" stroke-width="1" x1="898" x2="898" y1="352" y2="347"/>
<line fill="#000000" stroke="#000000" stroke-width="1" x1="898" x2="898" y1="342" y2="337"/>
<line fill="#000000" stroke="#000000" stroke-width="1" x1="898" x2="898" y1="332" y2="327"/>
<line fill="#000000" stroke="#000000" stroke-width="1" x1="898" x2="898" y1="322" y2="317"/>
<line fill="#000000" stroke="#000000" stroke-width="1" x1="898" x2="898" y1="312" y2="307"/>
<line fill="#000000" stroke="#000000" stroke-width="1" x1="898" x2="898" y1="302" y2="297"/>
<line fill="#000000" stroke="#000000" stroke-width="1" x1="898" x2="898" y1="292" y2="287"/>
<line fill="#000000" stroke="#000000" stroke-width="1" x1="898" x2="898" y1="282" y2="277"/>
<line fill="#000000" stroke="#000000" stroke-width="1" x1="898" x2="898" y1="272" y2="267"/>
<line fill="#000000" stroke="#000000" stroke-width="1" x1="898" x2="898" y1="262" y2="257"/>
<line fill="#000000" stroke="#000000" stroke-width="1" x1="898" x2="898" y1="252" y2="247"/>
<line fill="#000000" stroke="#000000" stroke-width="1" x1="898" x2="898" y1="242" y2="237"/>
<line fill="#000000" stroke="#000000" stroke-width="1" x1="898" x2="898" y1="232" y2="227"/>
<line fill="#000000" stroke="#000000" stroke-width="1" x1="898" x2="898" y1="222" y2="217"/>
<line fill="#000000" stroke="#000000" stroke-width="1" x1="898" x2="898" y1="212" y2="207"/>
<line fill="#000000" stroke="#000000" stroke-width="1" x1="898" x2="898" y1="202" y2="197"/>
<line fill="#000000" stroke="#000000" stroke-width="1" x1="898" x2="898" y1="192" y2="187"/>
<polygon fill="#ffffff" points="898,184 905,196 891,196" stroke="#ffffff" stroke-width="1"/>
<polygon fill="none" points="898,184 905,196 891,196" stroke="#000000" stroke-width="1"/>
<rect fill="#ffc800" height="66" stroke="#ffc800" stroke-width="1" width="66" x="954" y="382"/>
<rect fill="none" height="66" stroke="#000000" stroke-width="1" width="66" x="954" y="382"/>
<text font-family="Dialog" font-size="12" x="962" y="395">
AIPlayer</text>
<rect fill="#000000" height="1" stroke="#000000" stroke-width="1" width="66" x="954" y="405"/>
<rect fill="#000000" height="1" stroke="#000000" stroke-width="1" width="66" x="954" y="426"/>
<line fill="#000000" stroke="#000000" stroke-width="1" x1="968" x2="968" y1="382" y2="377"/>
<line fill="#000000" stroke="#000000" stroke-width="1" x1="968" x2="968" y1="372" y2="367"/>
<line fill="#000000" stroke="#000000" stroke-width="1" x1="968" x2="968" y1="362" y2="357"/>
<line fill="#000000" stroke="#000000" stroke-width="1" x1="968" x2="968" y1="352" y2="347"/>
<line fill="#000000" stroke="#000000" stroke-width="1" x1="968" x2="968" y1="342" y2="337"/>
<line fill="#000000" stroke="#000000" stroke-width="1" x1="968" x2="968" y1="332" y2="327"/>
<line fill="#000000" stroke="#000000" stroke-width="1" x1="968" x2="968" y1="322" y2="317"/>
<line fill="#000000" stroke="#000000" stroke-width="1" x1="968" x2="968" y1="312" y2="307"/>
<line fill="#000000" stroke="#000000" stroke-width="1" x1="968" x2="968" y1="302" y2="297"/>
<line fill="#000000" stroke="#000000" stroke-width="1" x1="968" x2="968" y1="292" y2="287"/>
<line fill="#000000" stroke="#000000" stroke-width="1" x1="968" x2="968" y1="282" y2="277"/>
<line fill="#000000" stroke="#000000" stroke-width="1" x1="968" x2="968" y1="272" y2="267"/>
<line fill="#000000" stroke="#000000" stroke-width="1" x1="968" x2="968" y1="262" y2="257"/>
<line fill="#000000" stroke="#000000" stroke-width="1" x1="968" x2="968" y1="252" y2="247"/>
<line fill="#000000" stroke="#000000" stroke-width="1" x1="968" x2="968" y1="242" y2="237"/>
<line fill="#000000" stroke="#000000" stroke-width="1" x1="968" x2="968" y1="232" y2="227"/>
<line fill="#000000" stroke="#000000" stroke-width="1" x1="968" x2="968" y1="222" y2="217"/>
<line fill="#000000" stroke="#000000" stroke-width="1" x1="968" x2="968" y1="212" y2="207"/>
<line fill="#000000" stroke="#000000" stroke-width="1" x1="968" x2="968" y1="202" y2="197"/>
<line fill="#000000" stroke="#000000" stroke-width="1" x1="968" x2="968" y1="192" y2="187"/>
<polygon fill="#ffffff" points="968,184 975,196 961,196" stroke="#ffffff" stroke-width="1"/>
<polygon fill="none" points="968,184 975,196 961,196" stroke="#000000" stroke-width="1"/>
<polyline fill="none" points="122,382 122,326 170,326" stroke="#000000" stroke-width="1"/>
<line fill="#000000" stroke="#000000" stroke-width="1" x1="158" x2="170" y1="333" y2="326"/>
<line fill="#000000" stroke="#000000" stroke-width="1" x1="158" x2="170" y1="319" y2="326"/>
<text font-family="Dialog" font-size="12" x="151" y="321">
1</text>
<line fill="#000000" stroke="#000000" stroke-width="1" x1="882" x2="882" y1="184" y2="189"/>
<line fill="#000000" stroke="#000000" stroke-width="1" x1="882" x2="882" y1="194" y2="199"/>
<line fill="#000000" stroke="#000000" stroke-width="1" x1="882" x2="882" y1="204" y2="209"/>
<line fill="#000000" stroke="#000000" stroke-width="1" x1="882" x2="882" y1="214" y2="219"/>
<line fill="#000000" stroke="#000000" stroke-width="1" x1="882" x2="882" y1="224" y2="229"/>
<line fill="#000000" stroke="#000000" stroke-width="1" x1="882" x2="882" y1="234" y2="239"/>
<line fill="#000000" stroke="#000000" stroke-width="1" x1="882" x2="882" y1="244" y2="249"/>
<line fill="#000000" stroke="#000000" stroke-width="1" x1="882" x2="882" y1="254" y2="259"/>
<line fill="#000000" stroke="#000000" stroke-width="1" x1="882" x2="882" y1="264" y2="269"/>
<line fill="#000000" stroke="#000000" stroke-width="1" x1="882" x2="882" y1="274" y2="279"/>
<line fill="#000000" stroke="#000000" stroke-width="1" x1="882" x2="882" y1="284" y2="289"/>
<line fill="#000000" stroke="#000000" stroke-width="1" x1="882" x2="882" y1="294" y2="299"/>
<line fill="#000000" stroke="#000000" stroke-width="1" x1="882" x2="882" y1="304" y2="309"/>
<line fill="#000000" stroke="#000000" stroke-width="1" x1="882" x2="882" y1="314" y2="319"/>
<line fill="#000000" stroke="#000000" stroke-width="1" x1="882" x2="882" y1="324" y2="326"/>
<line fill="#000000" stroke="#000000" stroke-width="1" x1="882" x2="877" y1="326" y2="326"/>
<line fill="#000000" stroke="#000000" stroke-width="1" x1="872" x2="867" y1="326" y2="326"/>
<line fill="#000000" stroke="#000000" stroke-width="1" x1="862" x2="857" y1="326" y2="326"/>
<line fill="#000000" stroke="#000000" stroke-width="1" x1="852" x2="847" y1="326" y2="326"/>
<line fill="#000000" stroke="#000000" stroke-width="1" x1="842" x2="837" y1="326" y2="326"/>
<line fill="#000000" stroke="#000000" stroke-width="1" x1="846" x2="834" y1="319" y2="326"/>
<line fill="#000000" stroke="#000000" stroke-width="1" x1="846" x2="834" y1="333" y2="326"/>
<polygon fill="#c0c0c0" points="634,390 698,390 708,400 708,429 634,429 634,390" stroke="#c0c0c0" stroke-width="1"/>
<polyline fill="none" points="634,390 698,390 708,400 708,429 634,429 634,390" stroke="#000000" stroke-width="1"/>
<polygon fill="#c0c0c0" points="698,390 708,400 698,400 698,390" stroke="#c0c0c0" stroke-width="1"/>
<polyline fill="none" points="698,390 708,400 698,400 698,390" stroke="#000000" stroke-width="1"/>
<text font-family="Dialog" font-size="12" x="637" y="405">
Controller</text>
<line fill="#333399" stroke="#333399" stroke-width="1" x1="708" x2="710" y1="390" y2="386"/>
<line fill="#333399" stroke="#333399" stroke-width="1" x1="713" x2="716" y1="382" y2="378"/>
<line fill="#333399" stroke="#333399" stroke-width="1" x1="719" x2="722" y1="374" y2="370"/>
</svg>
